<svg xmlns="http://www.w3.org/2000/svg" viewBox="0 0 512 512"><defs><style>@keyframes mf3dspin{to{transform:rotate(360deg)}}.a-spin{animation:mf3dspin 80s linear infinite;transform-box:fill-box;transform-origin:center}@keyframes mf3dbob{0%,100%{transform:translateX(0)}50%{transform:translateX(9px)}}.a-bob{animation:mf3dbob 7s ease-in-out infinite}@keyframes mf3dbob2{0%,100%{transform:translateX(0)}50%{transform:translateX(-11px)}}.a-bob2{animation:mf3dbob2 9s ease-in-out infinite}@keyframes mf3dfall{0%{transform:translateY(-12px);opacity:0}22%{opacity:1}70%{opacity:1}100%{transform:translateY(24px);opacity:0}}.a-fall{animation:mf3dfall 1.7s linear infinite}@keyframes mf3ddrift{0%{transform:translate(0,-12px) rotate(0deg);opacity:0}25%{opacity:1}70%{opacity:1}100%{transform:translate(7px,22px) rotate(38deg);opacity:0}}.a-drift{animation:mf3ddrift 3.2s linear infinite;transform-box:fill-box;transform-origin:center}@keyframes mf3dflash{0%,7%,100%{opacity:1}2%{opacity:.1}4%{opacity:.95}5%{opacity:.5}}.a-flash{animation:mf3dflash 3.8s linear infinite}@keyframes mf3dslide{0%,100%{transform:translateX(0)}50%{transform:translateX(14px)}}.a-slide{animation:mf3dslide 6s ease-in-out infinite}@keyframes mf3dslider{0%,100%{transform:translateX(0)}50%{transform:translateX(-14px)}}.a-slide-r{animation:mf3dslider 6s ease-in-out infinite}@keyframes mf3dtwinkle{0%,100%{opacity:1;transform:scale(1)}50%{opacity:.4;transform:scale(.8)}}.a-twinkle{animation:mf3dtwinkle 2.8s ease-in-out infinite;transform-box:fill-box;transform-origin:center}@media (prefers-reduced-motion:reduce){*{animation:none!important}}</style><linearGradient id="mf3d-partly-day-sung" x1="0" y1="0" x2="0.55" y2="1"><stop offset="0" stop-color="#ffd757"/><stop offset="1" stop-color="#ffa514"/></linearGradient><linearGradient id="mf3d-partly-day-petalg" x1="0" y1="0" x2="0" y2="1" gradientUnits="objectBoundingBox"><stop offset="0.1" stop-color="#fcb340"/><stop offset="0.6" stop-color="#f8951f"/><stop offset="1" stop-color="#f2582b"/></linearGradient><linearGradient id="mf3d-partly-day-cloudg" x1="0" y1="120" x2="0" y2="330" gradientUnits="userSpaceOnUse"><stop offset="0" stop-color="#f7fafd"/><stop offset="1" stop-color="#d9e5f5"/></linearGradient></defs><g transform="translate(170,152) scale(0.82)"><g class="a-spin"><path d="M-34,-86 C-40,-126 -6,-142 14,-182 C40,-144 42,-114 34,-86 A92,92 0 0 0 -34,-86 Z" fill="url(#mf3d-partly-day-petalg)" transform="rotate(8.0)"/><path d="M-34,-86 C-40,-119 -6,-132 14,-164 C40,-134 42,-110 34,-86 A92,92 0 0 0 -34,-86 Z" fill="url(#mf3d-partly-day-petalg)" transform="rotate(38.0)"/><path d="M-34,-86 C-40,-126 -6,-142 14,-182 C40,-144 42,-114 34,-86 A92,92 0 0 0 -34,-86 Z" fill="url(#mf3d-partly-day-petalg)" transform="rotate(68.0)"/><path d="M-34,-86 C-40,-119 -6,-132 14,-164 C40,-134 42,-110 34,-86 A92,92 0 0 0 -34,-86 Z" fill="url(#mf3d-partly-day-petalg)" transform="rotate(98.0)"/><path d="M-34,-86 C-40,-126 -6,-142 14,-182 C40,-144 42,-114 34,-86 A92,92 0 0 0 -34,-86 Z" fill="url(#mf3d-partly-day-petalg)" transform="rotate(128.0)"/><path d="M-34,-86 C-40,-119 -6,-132 14,-164 C40,-134 42,-110 34,-86 A92,92 0 0 0 -34,-86 Z" fill="url(#mf3d-partly-day-petalg)" transform="rotate(158.0)"/><path d="M-34,-86 C-40,-126 -6,-142 14,-182 C40,-144 42,-114 34,-86 A92,92 0 0 0 -34,-86 Z" fill="url(#mf3d-partly-day-petalg)" transform="rotate(188.0)"/><path d="M-34,-86 C-40,-119 -6,-132 14,-164 C40,-134 42,-110 34,-86 A92,92 0 0 0 -34,-86 Z" fill="url(#mf3d-partly-day-petalg)" transform="rotate(218.0)"/><path d="M-34,-86 C-40,-126 -6,-142 14,-182 C40,-144 42,-114 34,-86 A92,92 0 0 0 -34,-86 Z" fill="url(#mf3d-partly-day-petalg)" transform="rotate(248.0)"/><path d="M-34,-86 C-40,-119 -6,-132 14,-164 C40,-134 42,-110 34,-86 A92,92 0 0 0 -34,-86 Z" fill="url(#mf3d-partly-day-petalg)" transform="rotate(278.0)"/><path d="M-34,-86 C-40,-126 -6,-142 14,-182 C40,-144 42,-114 34,-86 A92,92 0 0 0 -34,-86 Z" fill="url(#mf3d-partly-day-petalg)" transform="rotate(308.0)"/><path d="M-34,-86 C-40,-119 -6,-132 14,-164 C40,-134 42,-110 34,-86 A92,92 0 0 0 -34,-86 Z" fill="url(#mf3d-partly-day-petalg)" transform="rotate(338.0)"/></g><clipPath id="mf3d-partly-day-sunclip2"><circle cx="0" cy="0" r="92"/></clipPath><circle cx="0" cy="0" r="92" fill="#ff9800"/><circle cx="-22" cy="-22" r="92" fill="url(#mf3d-partly-day-sung)" clip-path="url(#mf3d-partly-day-sunclip2)"/><ellipse cx="-42" cy="-52" rx="34" ry="13" fill="#ffe793" opacity="0.85" transform="rotate(-24 -42 -52)"/></g><g transform="translate(56,120) scale(0.82)"><g class="a-bob"><g fill="#c2d3ee" transform="translate(3,13)"><rect x="132" y="210" width="248" height="100" rx="46"/><circle cx="172" cy="244" r="64"/><circle cx="258" cy="214" r="88"/><circle cx="342" cy="246" r="60"/></g><g fill="url(#mf3d-partly-day-cloudg)"><rect x="132" y="210" width="248" height="100" rx="46"/><circle cx="172" cy="244" r="64"/><circle cx="258" cy="214" r="88"/><circle cx="342" cy="246" r="60"/></g><ellipse cx="234" cy="158" rx="24" ry="8" fill="#ffffff" opacity="0.85" transform="rotate(-14 234 158)"/><ellipse cx="156" cy="214" rx="12" ry="6" fill="#ffffff" opacity="0.65" transform="rotate(-30 156 214)"/></g></g></svg>